<svg width="1440" height="88" viewBox="0 0 1440 88" fill="none" xmlns="http://www.w3.org/2000/svg">
<g clip-path="url(#clip0)">
<path d="M-138 0.51001C-90.28 0.51001 -90.28 23.41 -42.57 23.41C5.14 23.41 5.14 0.51001 52.86 0.51001C100.58 0.51001 100.58 23.41 148.29 23.41C196.01 23.41 196.01 0.51001 243.72 0.51001C291.44 0.51001 291.44 23.41 339.15 23.41C386.87 23.41 386.87 0.51001 434.58 0.51001C482.3 0.51001 482.3 23.41 530.01 23.41C577.73 23.41 577.73 0.51001 625.45 0.51001C673.17 0.51001 673.17 23.41 720.89 23.41" stroke="#D1362A" stroke-width="1.0101" stroke-miterlimit="10"/>
<path d="M-138 13.3201C-90.28 13.3201 -90.28 36.2201 -42.57 36.2201C5.14 36.2201 5.14 13.3201 52.86 13.3201C100.58 13.3201 100.58 36.2201 148.29 36.2201C196.01 36.2201 196.01 13.3201 243.72 13.3201C291.44 13.3201 291.44 36.2201 339.15 36.2201C386.87 36.2201 386.87 13.3201 434.58 13.3201C482.3 13.3201 482.3 36.2201 530.01 36.2201C577.73 36.2201 577.73 13.3201 625.45 13.3201C673.17 13.3201 673.17 36.2201 720.89 36.2201" stroke="#D1362A" stroke-width="1.0101" stroke-miterlimit="10"/>
<path d="M-138 26.1301C-90.28 26.1301 -90.28 49.0401 -42.57 49.0401C5.14 49.0401 5.14 26.1301 52.86 26.1301C100.58 26.1301 100.58 49.0401 148.29 49.0401C196.01 49.0401 196.01 26.1301 243.72 26.1301C291.44 26.1301 291.44 49.0401 339.15 49.0401C386.87 49.0401 386.87 26.1301 434.58 26.1301C482.3 26.1301 482.3 49.0401 530.01 49.0401C577.73 49.0401 577.73 26.1301 625.45 26.1301C673.17 26.1301 673.17 49.0401 720.89 49.0401" stroke="#D1362A" stroke-width="1.0101" stroke-miterlimit="10"/>
<path d="M-138 38.9399C-90.28 38.9399 -90.28 61.8399 -42.57 61.8399C5.14 61.8399 5.14 38.9399 52.86 38.9399C100.58 38.9399 100.58 61.8399 148.29 61.8399C196.01 61.8399 196.01 38.9399 243.72 38.9399C291.44 38.9399 291.44 61.8399 339.15 61.8399C386.87 61.8399 386.87 38.9399 434.58 38.9399C482.3 38.9399 482.3 61.8399 530.01 61.8399C577.73 61.8399 577.73 38.9399 625.45 38.9399C673.17 38.9399 673.17 61.8399 720.89 61.8399" stroke="#D1362A" stroke-width="1.0101" stroke-miterlimit="10"/>
<path d="M-138 51.76C-90.28 51.76 -90.28 74.67 -42.57 74.67C5.14 74.67 5.14 51.76 52.86 51.76C100.58 51.76 100.58 74.67 148.29 74.67C196.01 74.67 196.01 51.76 243.72 51.76C291.44 51.76 291.44 74.67 339.15 74.67C386.87 74.67 386.87 51.76 434.58 51.76C482.3 51.76 482.3 74.67 530.01 74.67C577.73 74.67 577.73 51.76 625.45 51.76C673.17 51.76 673.17 74.67 720.89 74.67" stroke="#D1362A" stroke-width="1.0101" stroke-miterlimit="10"/>
<path d="M-138 64.5701C-90.28 64.5701 -90.28 87.4701 -42.57 87.4701C5.14 87.4701 5.14 64.5701 52.86 64.5701C100.58 64.5701 100.58 87.4701 148.29 87.4701C196.01 87.4701 196.01 64.5701 243.72 64.5701C291.44 64.5701 291.44 87.4701 339.15 87.4701C386.87 87.4701 386.87 64.5701 434.58 64.5701C482.3 64.5701 482.3 87.4701 530.01 87.4701C577.73 87.4701 577.73 64.5701 625.45 64.5701C673.17 64.5701 673.17 87.4701 720.89 87.4701" stroke="#D1362A" stroke-width="1.0101" stroke-miterlimit="10"/>
</g>
<g clip-path="url(#clip1)">
<path d="M1578.89 0.51001C1531.17 0.51001 1531.17 23.41 1483.46 23.41C1435.75 23.41 1435.75 0.51001 1388.03 0.51001C1340.31 0.51001 1340.31 23.41 1292.6 23.41C1244.88 23.41 1244.88 0.51001 1197.17 0.51001C1149.45 0.51001 1149.45 23.41 1101.74 23.41C1054.02 23.41 1054.02 0.51001 1006.31 0.51001C958.59 0.51001 958.59 23.41 910.88 23.41C863.16 23.41 863.16 0.51001 815.44 0.51001C767.72 0.51001 767.72 23.41 720 23.41" stroke="#D1362A" stroke-width="1.0101" stroke-miterlimit="10"/>
<path d="M1578.89 13.3201C1531.17 13.3201 1531.17 36.2201 1483.46 36.2201C1435.75 36.2201 1435.75 13.3201 1388.03 13.3201C1340.31 13.3201 1340.31 36.2201 1292.6 36.2201C1244.88 36.2201 1244.88 13.3201 1197.17 13.3201C1149.45 13.3201 1149.45 36.2201 1101.74 36.2201C1054.02 36.2201 1054.02 13.3201 1006.31 13.3201C958.59 13.3201 958.59 36.2201 910.88 36.2201C863.16 36.2201 863.16 13.3201 815.44 13.3201C767.72 13.3201 767.72 36.2201 720 36.2201" stroke="#D1362A" stroke-width="1.0101" stroke-miterlimit="10"/>
<path d="M1578.89 26.1301C1531.17 26.1301 1531.17 49.0401 1483.46 49.0401C1435.75 49.0401 1435.75 26.1301 1388.03 26.1301C1340.31 26.1301 1340.31 49.0401 1292.6 49.0401C1244.88 49.0401 1244.88 26.1301 1197.17 26.1301C1149.45 26.1301 1149.45 49.0401 1101.74 49.0401C1054.02 49.0401 1054.02 26.1301 1006.31 26.1301C958.59 26.1301 958.59 49.0401 910.88 49.0401C863.16 49.0401 863.16 26.1301 815.44 26.1301C767.72 26.1301 767.72 49.0401 720 49.0401" stroke="#D1362A" stroke-width="1.0101" stroke-miterlimit="10"/>
<path d="M1578.89 38.9399C1531.17 38.9399 1531.17 61.8399 1483.46 61.8399C1435.75 61.8399 1435.75 38.9399 1388.03 38.9399C1340.31 38.9399 1340.31 61.8399 1292.6 61.8399C1244.88 61.8399 1244.88 38.9399 1197.17 38.9399C1149.45 38.9399 1149.45 61.8399 1101.74 61.8399C1054.02 61.8399 1054.02 38.9399 1006.31 38.9399C958.59 38.9399 958.59 61.8399 910.88 61.8399C863.16 61.8399 863.16 38.9399 815.44 38.9399C767.72 38.9399 767.72 61.8399 720 61.8399" stroke="#D1362A" stroke-width="1.0101" stroke-miterlimit="10"/>
<path d="M1578.89 51.76C1531.17 51.76 1531.17 74.67 1483.46 74.67C1435.75 74.67 1435.75 51.76 1388.03 51.76C1340.31 51.76 1340.31 74.67 1292.6 74.67C1244.88 74.67 1244.88 51.76 1197.17 51.76C1149.45 51.76 1149.45 74.67 1101.74 74.67C1054.02 74.67 1054.02 51.76 1006.31 51.76C958.59 51.76 958.59 74.67 910.88 74.67C863.16 74.67 863.16 51.76 815.44 51.76C767.72 51.76 767.72 74.67 720 74.67" stroke="#D1362A" stroke-width="1.0101" stroke-miterlimit="10"/>
<path d="M1578.89 64.5701C1531.17 64.5701 1531.17 87.4701 1483.46 87.4701C1435.75 87.4701 1435.75 64.5701 1388.03 64.5701C1340.31 64.5701 1340.31 87.4701 1292.6 87.4701C1244.88 87.4701 1244.88 64.5701 1197.17 64.5701C1149.45 64.5701 1149.45 87.4701 1101.74 87.4701C1054.02 87.4701 1054.02 64.5701 1006.31 64.5701C958.59 64.5701 958.59 87.4701 910.88 87.4701C863.16 87.4701 863.16 64.5701 815.44 64.5701C767.72 64.5701 767.72 87.4701 720 87.4701" stroke="#D1362A" stroke-width="1.0101" stroke-miterlimit="10"/>
</g>
<defs>
<clipPath id="clip0">
<rect width="858.9" height="87.98" fill="white" transform="translate(-138)"/>
</clipPath>
<clipPath id="clip1">
<rect width="858.9" height="87.98" fill="white" transform="translate(720)"/>
</clipPath>
</defs>
</svg>
