<svg width="16" height="16" viewBox="0 0 16 16" fill="none" xmlns="http://www.w3.org/2000/svg">
<g clip-path="url(#clip0)">
<path d="M14.3413 2.08391H13.3368V1.28787C13.3368 1.05864 13.1493 0.871094 12.9201 0.871094C12.6908 0.871094 12.5033 1.05864 12.5033 1.28787V2.08391H8.41887V1.28787C8.41887 1.05864 8.23133 0.871094 8.0021 0.871094C7.77287 0.871094 7.58532 1.05864 7.58532 1.28787V2.08391H3.45924V1.28787C3.45924 1.05864 3.27169 0.871094 3.04246 0.871094C2.81324 0.871094 2.62569 1.05864 2.62569 1.28787V2.08391H1.66294C0.746029 2.08391 0 2.85494 0 3.77185V13.4619C0 14.3829 0.741861 15.129 1.66294 15.129H14.3371C15.2582 15.129 16 14.3829 16 13.466V3.77185C16.0042 2.85494 15.2582 2.08391 14.3413 2.08391ZM15.1706 13.4619C15.1706 13.9203 14.8039 14.2913 14.3454 14.2954H14.3413H1.66294C1.20448 14.2954 0.833552 13.9245 0.833552 13.466V13.4619V3.77185C0.833552 3.30923 1.20448 2.91746 1.66294 2.91746H2.62569V3.52178C2.62569 3.75101 2.81324 3.93856 3.04246 3.93856C3.27169 3.93856 3.45924 3.75101 3.45924 3.52178V2.91746H7.58532V3.52178C7.58532 3.75101 7.77287 3.93856 8.0021 3.93856C8.23133 3.93856 8.41887 3.75101 8.41887 3.52178V2.91746H12.5033V3.52178C12.5033 3.75101 12.6908 3.93856 12.9201 3.93856C13.1493 3.93856 13.3368 3.75101 13.3368 3.52178V2.91746H14.3413C14.8039 2.91746 15.1706 3.3134 15.1706 3.77185V13.4619Z" fill="#8B8B8B"/>
<path d="M6.9059 5.62695H6.17654C5.94731 5.62695 5.75977 5.8145 5.75977 6.04373C5.75977 6.27295 5.94731 6.4605 6.17654 6.4605H6.9059C7.13512 6.4605 7.32267 6.27295 7.32267 6.04373C7.32267 5.8145 7.13512 5.62695 6.9059 5.62695Z" fill="#8B8B8B"/>
<path d="M9.80678 5.62695H9.07742C8.84819 5.62695 8.66064 5.8145 8.66064 6.04373C8.66064 6.27295 8.84819 6.4605 9.07742 6.4605H9.80678C10.036 6.4605 10.2236 6.27295 10.2236 6.04373C10.2236 5.8145 10.0402 5.62695 9.80678 5.62695Z" fill="#8B8B8B"/>
<path d="M12.7326 5.62695H12.0032C11.774 5.62695 11.5864 5.8145 11.5864 6.04373C11.5864 6.27295 11.774 6.4605 12.0032 6.4605H12.7326C12.9618 6.4605 13.1493 6.27295 13.1493 6.04373C13.1493 5.8145 12.9618 5.62695 12.7326 5.62695Z" fill="#8B8B8B"/>
<path d="M6.9059 8.50195H6.17654C5.94731 8.50195 5.75977 8.6895 5.75977 8.91873C5.75977 9.14795 5.94731 9.3355 6.17654 9.3355H6.9059C7.13512 9.3355 7.32267 9.14795 7.32267 8.91873C7.32267 8.6895 7.13512 8.50195 6.9059 8.50195Z" fill="#8B8B8B"/>
<path d="M3.98428 8.50195H3.25076C3.02153 8.50195 2.83398 8.6895 2.83398 8.91873C2.83398 9.14795 3.02153 9.3355 3.25076 9.3355H3.98012C4.20934 9.3355 4.39689 9.14795 4.39689 8.91873C4.39689 8.6895 4.21351 8.50195 3.98428 8.50195Z" fill="#8B8B8B"/>
<path d="M9.80678 8.50195H9.07742C8.84819 8.50195 8.66064 8.6895 8.66064 8.91873C8.66064 9.14795 8.84819 9.3355 9.07742 9.3355H9.80678C10.036 9.3355 10.2236 9.14795 10.2236 8.91873C10.2236 8.6895 10.0402 8.50195 9.80678 8.50195Z" fill="#8B8B8B"/>
<path d="M12.7326 8.50195H12.0032C11.774 8.50195 11.5864 8.6895 11.5864 8.91873C11.5864 9.14795 11.774 9.3355 12.0032 9.3355H12.7326C12.9618 9.3355 13.1493 9.14795 13.1493 8.91873C13.1493 8.6895 12.9618 8.50195 12.7326 8.50195Z" fill="#8B8B8B"/>
<path d="M6.9059 11.3359H6.17654C5.94731 11.3359 5.75977 11.5235 5.75977 11.7527C5.75977 11.9819 5.94731 12.1695 6.17654 12.1695H6.9059C7.13512 12.1695 7.32267 11.9819 7.32267 11.7527C7.32267 11.5235 7.13512 11.3359 6.9059 11.3359Z" fill="#8B8B8B"/>
<path d="M3.98428 11.3359H3.25076C3.02153 11.3359 2.83398 11.5235 2.83398 11.7527C2.83398 11.9819 3.02153 12.1695 3.25076 12.1695H3.98012C4.20934 12.1695 4.39689 11.9819 4.39689 11.7527C4.39689 11.5235 4.21351 11.3359 3.98428 11.3359Z" fill="#8B8B8B"/>
<path d="M9.80678 11.3359H9.07742C8.84819 11.3359 8.66064 11.5235 8.66064 11.7527C8.66064 11.9819 8.84819 12.1695 9.07742 12.1695H9.80678C10.036 12.1695 10.2236 11.9819 10.2236 11.7527C10.2236 11.5235 10.0402 11.3359 9.80678 11.3359Z" fill="#8B8B8B"/>
</g>
<defs>
<clipPath id="clip0">
<rect width="16" height="16" fill="white"/>
</clipPath>
</defs>
</svg>
