<svg width="10" height="10" viewBox="0 0 10 10" fill="none" xmlns="http://www.w3.org/2000/svg">
<path d="M8.24358 2.82074H1.75657C1.68639 2.81478 1.61685 2.83797 1.56427 2.88484C1.51256 2.93451 1.48861 3.0064 1.50017 3.07715L2.16681 8.88468C2.24499 9.52496 2.79098 10.0048 3.436 10H6.66668C7.32986 10.0095 7.88848 9.50671 7.9487 8.84622L8.49996 3.05151C8.50337 2.98935 8.48006 2.92869 8.43586 2.88484C8.3833 2.83797 8.31376 2.81478 8.24358 2.82074ZM7.43592 8.82058C7.39562 9.21097 7.05885 9.50283 6.6667 9.48722H3.43602C3.05091 9.50285 2.71989 9.21671 2.67962 8.83339L2.03862 3.33355H7.96153L7.43592 8.82058Z" fill="#D1362A"/>
<path d="M9.17937 1.15396H6.5384V0.743694C6.55264 0.347445 6.24296 0.0147014 5.84671 0.00046899C5.8337 2.75598e-06 5.82067 -0.000119937 5.80767 0.000125449H4.19232C3.79587 -0.0072116 3.46857 0.308208 3.46124 0.704654C3.46099 0.717659 3.46112 0.730689 3.46158 0.743694V1.15393H0.820613C0.679001 1.15393 0.564209 1.26872 0.564209 1.41033C0.564209 1.55195 0.679001 1.66674 0.820613 1.66674H9.17937C9.32098 1.66674 9.43578 1.55195 9.43578 1.41033C9.43578 1.26872 9.32096 1.15396 9.17937 1.15396ZM6.0256 0.743694V1.15393H3.97436V0.743694C3.95991 0.631332 4.03929 0.52854 4.15166 0.514087C4.16513 0.512344 4.17875 0.511976 4.19229 0.512933H5.80764C5.92064 0.504934 6.01875 0.590034 6.02675 0.703059C6.02773 0.716604 6.02734 0.730223 6.0256 0.743694Z" fill="#D1362A"/>
</svg>
