<svg width="10" height="10" viewBox="0 0 10 10" fill="none" xmlns="http://www.w3.org/2000/svg">
<g clip-path="url(#clip0)">
<path d="M0.946139 7.99999H1.0002L3.6083 7.43242C3.6591 7.42396 3.70617 7.40042 3.74342 7.36486L8.16228 2.94597C8.48509 2.62386 8.66519 2.18575 8.66229 1.72977C8.66289 1.27024 8.48338 0.828797 8.16228 0.500046C7.84021 0.177244 7.4021 -0.00285762 6.94609 6.51819e-05C6.48718 -0.00399571 6.047 0.181848 5.72989 0.513573L1.3245 4.93244C1.28565 4.96371 1.25733 5.00616 1.24341 5.05406L0.67587 7.66216C0.660376 7.75579 0.690484 7.85118 0.756958 7.91892C0.806853 7.96983 0.874853 7.99898 0.946139 7.99999ZM6.94609 0.540603C7.59539 0.540551 8.12178 1.06689 8.12183 1.71619C8.12183 1.72072 8.12181 1.72524 8.12175 1.72977C8.12618 2.0391 8.00414 2.33683 7.78392 2.55408L6.12178 0.878407C6.34076 0.6608 6.63736 0.539232 6.94609 0.540603ZM5.74339 1.27032L7.40554 2.93247L3.55421 6.77026L1.89207 5.12162L5.74339 1.27032ZM1.67586 5.66218L3.01367 7L1.29747 7.37839L1.67586 5.66218Z" fill="#3C3C3C"/>
<path d="M9.5269 9.45947H0.472906C0.323636 9.45947 0.202637 9.58047 0.202637 9.72973C0.202637 9.879 0.323636 10 0.472906 10H9.5269C9.67617 10 9.79717 9.879 9.79717 9.72973C9.79717 9.58047 9.67617 9.45947 9.5269 9.45947Z" fill="#3C3C3C"/>
</g>
<defs>
<clipPath id="clip0">
<rect width="10" height="10" fill="white"/>
</clipPath>
</defs>
</svg>
