<svg width="40" height="40" viewBox="0 0 40 40" fill="none" xmlns="http://www.w3.org/2000/svg">
<path d="M38.6665 17.9998H35.2004C34.2889 11.1222 28.8774 5.71077 21.9998 4.79932V1.33317C21.9972 0.965983 21.7004 0.669108 21.3332 0.666504H18.6665C18.2993 0.669108 18.0024 0.965983 17.9998 1.33317V4.79932C11.1222 5.71077 5.71077 11.1222 4.79932 17.9998H1.33317C0.965983 18.0024 0.669108 18.2993 0.666504 18.6665V21.3332C0.669108 21.7004 0.965983 21.9972 1.33317 21.9998H4.79932C5.71077 28.8774 11.1222 34.2889 17.9998 35.2004V38.6665C18.0024 39.0337 18.2993 39.3306 18.6665 39.3332H21.3332C21.7004 39.3306 21.9972 39.0337 21.9998 38.6665V35.2004C28.8774 34.2889 34.2889 28.8774 35.2004 21.9998H38.6665C39.0337 21.9972 39.3306 21.7004 39.3332 21.3332V18.6665C39.3306 18.2993 39.0337 18.0024 38.6665 17.9998ZM18.9998 31.2863C13.1509 30.7707 8.6665 25.8722 8.6665 19.9998C8.6665 14.1274 13.1509 9.229 18.9998 8.71338C19.3306 8.67952 19.6665 8.6639 19.9998 8.6665C26.2603 8.6665 31.3332 13.7394 31.3332 19.9998C31.3332 26.2603 26.2603 31.3332 19.9998 31.3332C19.6665 31.3358 19.3306 31.3201 18.9998 31.2863Z" fill="#F2F2F2"/>
<path d="M36.6665 17.9998H33.2004C32.2889 11.1222 26.8774 5.71077 19.9998 4.79932V1.33317C19.9972 0.965983 19.7004 0.669108 19.3332 0.666504H18.6665C18.2993 0.669108 18.0024 0.965983 17.9998 1.33317V4.79932C11.1222 5.71077 5.71078 11.1222 4.79932 17.9998H1.33317C0.965983 18.0024 0.669108 18.2993 0.666504 18.6665V21.3332C0.669108 21.7004 0.965983 21.9972 1.33317 21.9998H4.79932C5.71078 28.8774 11.1222 34.2889 17.9998 35.2004V38.6665C18.0024 39.0337 18.2993 39.3306 18.6665 39.3332H19.3332C19.7004 39.3306 19.9972 39.0337 19.9998 38.6665V35.2004C26.8774 34.2889 32.2889 28.8774 33.2004 21.9998H36.6665C37.0337 21.9972 37.3306 21.7004 37.3332 21.3332V18.6665C37.3306 18.2993 37.0337 18.0024 36.6665 17.9998ZM19.9998 31.3332C19.6665 31.3358 19.3306 31.3201 18.9998 31.2863C18.6691 31.3201 18.3332 31.3358 17.9998 31.3332C11.7394 31.3332 6.6665 26.2603 6.6665 19.9998C6.6665 13.7394 11.7394 8.6665 17.9998 8.6665C18.3332 8.6639 18.6691 8.67952 18.9998 8.71338C19.3306 8.67952 19.6665 8.6639 19.9998 8.6665C26.2603 8.6665 31.3332 13.7394 31.3332 19.9998C31.3332 26.2603 26.2603 31.3332 19.9998 31.3332Z" fill="#F2F2F2"/>
<path d="M25.3332 20.0003C25.3332 21.4144 24.7707 22.7712 23.7707 23.7712C22.7707 24.7712 21.4139 25.3337 19.9998 25.3337C19.6639 25.3337 19.3306 25.3024 18.9998 25.2399C16.4842 24.7607 14.6665 22.5602 14.6665 20.0003C14.6665 17.4404 16.4842 15.2399 18.9998 14.7607C19.3306 14.6982 19.6639 14.667 19.9998 14.667C21.4139 14.667 22.7707 15.2295 23.7707 16.2295C24.7707 17.2295 25.3332 18.5863 25.3332 20.0003Z" fill="#F2F2F2"/>
<path d="M23.3332 19.9998C23.3332 17.1066 21.3931 14.7603 18.9998 14.7603C16.6066 14.7603 14.6665 17.1066 14.6665 19.9998C14.6665 22.8931 16.6066 25.2394 18.9998 25.2394C21.3931 25.2394 23.3332 22.8931 23.3332 19.9998Z" fill="#F2F2F2"/>
<path d="M0.666504 21.3333C0.669108 21.7005 0.965983 21.9974 1.33317 22H3.33317C2.96598 21.9974 2.66911 21.7005 2.6665 21.3333V18.6667C2.66911 18.2995 2.96598 18.0026 3.33317 18H1.33317C0.965983 18.0026 0.669108 18.2995 0.666504 18.6667V21.3333Z" fill="white"/>
<path d="M18.6665 0.666504C18.2993 0.669108 18.0024 0.965983 17.9998 1.33317V4.79932C11.1222 5.71077 5.71077 11.1222 4.79932 17.9998H6.79932C7.71077 11.1222 13.1222 5.71077 19.9998 4.79932V1.33317C20.0024 0.965983 20.2993 0.669108 20.6665 0.666504H18.6665Z" fill="white"/>
<path d="M17.9998 35.2005V38.6667C18.0024 39.0339 18.2993 39.3307 18.6665 39.3333H20.6665C20.2993 39.3307 20.0024 39.0339 19.9998 38.6667V35.2005C13.1222 34.2891 7.71077 28.8776 6.79932 22H4.79932C5.71077 28.8776 11.1222 34.2891 17.9998 35.2005Z" fill="white"/>
<path d="M4.13818 17.9141C5.09391 10.7396 10.7397 5.09375 17.9142 4.14062L18.0861 5.46094C11.5106 6.33854 6.3387 11.5104 5.4611 18.0859L4.13818 17.9141Z" fill="white"/>
<path d="M5.59912 14.7705C5.42985 14.7132 5.24235 14.7263 5.08089 14.807C4.91943 14.8851 4.79704 15.0284 4.74235 15.2002C4.60693 15.6429 4.50277 16.0961 4.38037 16.544L4.13818 17.9138L5.4611 18.0856L5.68246 16.8304C5.79443 16.4216 5.89079 16.0075 6.01318 15.5987C6.12256 15.2575 5.94027 14.8903 5.59912 14.7705Z" fill="#D1362A"/>
<path d="M18.0857 5.46094L17.9138 4.14062C13.9425 4.67708 10.3122 6.67708 7.73412 9.74479L7.30444 10.2917C7.18985 10.4297 7.13777 10.612 7.16381 10.7917C7.18725 10.9688 7.28621 11.1302 7.43725 11.2318C7.73152 11.4323 8.13256 11.3776 8.36173 11.1016L8.75496 10.6016C11.1195 7.78906 14.4451 5.95573 18.0857 5.46094Z" fill="#D1362A"/>
<path d="M5.81013 12.6325C5.71899 12.794 5.70336 12.9841 5.76066 13.1586L5.81795 13.2758C5.84138 13.3148 5.87003 13.3513 5.90128 13.3825C5.92732 13.4164 5.95857 13.4476 5.99243 13.4711C6.03149 13.4971 6.06795 13.5206 6.10961 13.5388C6.26847 13.6117 6.44816 13.6221 6.61482 13.57C6.69295 13.5388 6.76586 13.4945 6.82576 13.4372C7.03149 13.2758 7.11743 13.0075 7.04191 12.7575C7.01326 12.6768 6.97159 12.5987 6.91691 12.531C6.86222 12.4607 6.79711 12.4034 6.72159 12.3565C6.56795 12.2706 6.38566 12.2471 6.21638 12.2966C6.04451 12.3539 5.89868 12.4737 5.81013 12.6325Z" fill="#D1362A"/>
<path d="M21.3333 40H18.6667C17.9297 40 17.3333 39.4036 17.3333 38.6667V35.7734C10.6172 34.6432 5.35677 29.3828 4.22656 22.6667H1.33333C0.596354 22.6667 0 22.0703 0 21.3333V18.6667C0 17.9297 0.596354 17.3333 1.33333 17.3333H4.79948C5.16927 17.3333 5.46615 17.6328 5.46615 18C5.46615 18.3672 5.16927 18.6667 4.79948 18.6667H1.33333V21.3333H4.79948C5.13542 21.3333 5.41667 21.5807 5.46094 21.9141C6.32292 28.4974 11.5026 33.6771 18.0859 34.5391C18.4193 34.5807 18.6667 34.8646 18.6667 35.2005V38.6667H21.3333V35.2005C21.3333 34.8646 21.5807 34.5833 21.9141 34.5391C28.4974 33.6771 33.6771 28.4974 34.5391 21.9141C34.5807 21.5807 34.8646 21.3333 35.2005 21.3333H38.6667V18.6667H35.2005C34.8646 18.6667 34.5833 18.4193 34.5391 18.0859C33.6771 11.5026 28.4974 6.32292 21.9141 5.46094C21.5807 5.41927 21.3333 5.13542 21.3333 4.79948V1.33333H18.6667V4.79948C18.6667 5.16927 18.3672 5.46615 18 5.46615C17.6328 5.46615 17.3333 5.16927 17.3333 4.79948V1.33333C17.3333 0.596354 17.9297 0 18.6667 0H21.3333C22.0703 0 22.6667 0.596354 22.6667 1.33333V4.22656C29.3828 5.35677 34.6432 10.6172 35.7734 17.3333H38.6667C39.4036 17.3333 40 17.9297 40 18.6667V21.3333C40 22.0703 39.4036 22.6667 38.6667 22.6667H35.7734C34.6432 29.3828 29.3828 34.6432 22.6667 35.7734V38.6667C22.6667 39.4036 22.0703 40 21.3333 40Z" fill="#D1362A"/>
<path d="M20.0005 32C13.3729 32 8.00049 26.6276 8.00049 20C8.00049 13.3724 13.3729 8 20.0005 8C26.6281 8 32.0005 13.3724 32.0005 20C31.9927 26.625 26.6255 31.9922 20.0005 32ZM20.0005 9.33333C14.1099 9.33333 9.33382 14.1094 9.33382 20C9.33382 25.8906 14.1099 30.6667 20.0005 30.6667C25.8911 30.6667 30.6672 25.8906 30.6672 20C30.6593 14.112 25.8885 9.34115 20.0005 9.33333Z" fill="#D1362A"/>
<path d="M20 25.999C16.6849 25.999 14 23.3141 14 19.999C14 16.6839 16.6849 13.999 20 13.999C23.3151 13.999 26 16.6839 26 19.999C25.9948 23.3115 23.3125 25.9938 20 25.999ZM20 15.3324C17.4219 15.3324 15.3333 17.4209 15.3333 19.999C15.3333 22.5771 17.4219 24.6657 20 24.6657C22.5781 24.6657 24.6667 22.5771 24.6667 19.999C24.6641 17.4235 22.5755 15.335 20 15.3324Z" fill="#D1362A"/>
</svg>
