<svg width="16" height="16" viewBox="0 0 16 16" fill="none" xmlns="http://www.w3.org/2000/svg">
<g clip-path="url(#clip0)">
<path d="M8.00004 14.5C5.5 12 -0.299977 8.59998 0.500023 4.99998C1.30002 1.39998 4.16669 1.49998 5.50002 1.99998L8 3H8.50004L11 1.5L13.5 1.99998L15 3.5L15.5 6L14 9L8.00004 14.5Z" fill="#E31D1A"/>
<path d="M14.7525 2.53492C13.91 1.67329 12.7831 1.19876 11.5792 1.19876C10.3939 1.19876 9.27941 1.66042 8.44103 2.49882L8.00834 2.93179L7.57525 2.4987C6.73694 1.66039 5.62269 1.19873 4.43772 1.19873C3.25238 1.19873 2.13794 1.66039 1.29969 2.4987C0.461563 3.33679 0 4.45114 0 5.63648C0 6.82182 0.461563 7.93617 1.29969 8.77426L6.846 14.3205C7.16641 14.6409 7.58716 14.8011 8.008 14.8011C8.42875 14.801 8.84959 14.6409 9.16991 14.3206L14.6805 8.81048C16.4113 7.07964 16.4436 4.26448 14.7525 2.53492ZM14.0995 8.22948L8.58891 13.7396C8.26856 14.06 7.74731 14.06 7.427 13.7396L1.88066 8.19323C1.19772 7.51032 0.821625 6.60232 0.821625 5.63645C0.821625 4.67057 1.19772 3.76257 1.88066 3.07964C2.56372 2.39654 3.47184 2.02036 4.43772 2.02036C5.40322 2.02036 6.31116 2.39654 6.99425 3.07964L7.42756 3.51295L6.76403 4.17698C6.60366 4.33748 6.60378 4.59757 6.76425 4.75795C6.84447 4.83811 6.94953 4.87817 7.05463 4.87817C7.15984 4.87817 7.265 4.83798 7.34522 4.75773L9.02203 3.07961C9.70512 2.39651 10.6132 2.02032 11.5791 2.02032C12.56 2.02032 13.4783 2.40707 14.1649 3.10929C15.5429 4.51857 15.5135 6.81545 14.0995 8.22948Z" fill="#E31D1A"/>
<path d="M14.1693 5.51483C14.1309 4.8928 13.8674 4.30786 13.4273 3.86773C13.1157 3.55613 12.729 3.32971 12.3092 3.21284C12.1231 3.16106 11.9303 3.26996 11.8785 3.45606C11.8267 3.64214 11.9356 3.83498 12.1217 3.88675C12.4257 3.97133 12.7061 4.13577 12.9327 4.36232C13.2521 4.68169 13.4433 5.10628 13.4712 5.55791C13.4827 5.74337 13.6366 5.88611 13.82 5.88611C13.8272 5.88611 13.8345 5.8859 13.8419 5.88542C14.0347 5.87358 14.1813 5.70764 14.1693 5.51483Z" fill="white" stroke="white" stroke-width="0.5"/>
</g>
<defs>
<clipPath id="clip0">
<rect width="16" height="16" fill="white"/>
</clipPath>
</defs>
</svg>
