<svg width="59" height="16" viewBox="0 0 59 16" fill="none" xmlns="http://www.w3.org/2000/svg">
<path d="M31.0709 9.14732C31.0709 10.1247 30.7863 10.895 30.2222 11.4528C29.6581 12.0158 28.8621 12.2974 27.8447 12.2974C26.822 12.2974 26.0313 12.0158 25.4672 11.4528C24.9031 10.8897 24.6185 10.1194 24.6185 9.14732C24.6185 8.16459 24.9031 7.39433 25.4725 6.83125C26.0418 6.27348 26.8326 5.99194 27.8447 5.99194C28.8727 5.99194 29.6687 6.27348 30.2275 6.83656C30.7915 7.39965 31.0709 8.1699 31.0709 9.14732ZM28.7462 10.5922C28.8674 10.4435 28.9623 10.2575 29.0203 10.0451C29.0783 9.83258 29.1099 9.5351 29.1099 9.15795C29.1099 8.80735 29.0783 8.51518 29.015 8.28145C28.9517 8.04772 28.8621 7.85649 28.7514 7.71306C28.6407 7.56963 28.5037 7.4687 28.3455 7.40496C28.1874 7.34652 28.0187 7.31465 27.8342 7.31465C27.6497 7.31465 27.4915 7.34121 27.3492 7.38902C27.2068 7.43683 27.0698 7.53776 26.9433 7.6865C26.8273 7.82461 26.7377 8.01054 26.6691 8.25489C26.6006 8.49394 26.569 8.79672 26.569 9.15795C26.569 9.48198 26.6006 9.76352 26.6586 10.0026C26.7166 10.2416 26.8062 10.4328 26.9222 10.5763C27.0329 10.7144 27.1699 10.8153 27.3228 10.8791C27.481 10.9428 27.6549 10.9747 27.8552 10.9747C28.0292 10.9747 28.1926 10.9481 28.3455 10.8897C28.5037 10.8259 28.6354 10.7303 28.7462 10.5922Z" fill="#656565"/>
<path d="M38.2299 9.14732C38.2299 10.1247 37.9452 10.895 37.3811 11.4528C36.8171 12.0158 36.0211 12.2974 35.0036 12.2974C33.9809 12.2974 33.1902 12.0158 32.6261 11.4528C32.0621 10.8897 31.7774 10.1194 31.7774 9.14732C31.7774 8.16459 32.0621 7.39433 32.6314 6.83125C33.2007 6.27348 33.9915 5.99194 35.0036 5.99194C36.0316 5.99194 36.8276 6.27348 37.3864 6.83656C37.9505 7.39965 38.2299 8.1699 38.2299 9.14732ZM35.9051 10.5922C36.0263 10.4435 36.1212 10.2575 36.1792 10.0451C36.2425 9.83258 36.2688 9.5351 36.2688 9.15795C36.2688 8.80735 36.2372 8.51518 36.1739 8.28145C36.1107 8.04772 36.0211 7.85649 35.9104 7.71306C35.7996 7.56963 35.6626 7.4687 35.5044 7.40496C35.3463 7.34652 35.1776 7.31465 34.9931 7.31465C34.8086 7.31465 34.6504 7.34121 34.5081 7.38902C34.3658 7.43683 34.2287 7.53776 34.1022 7.6865C33.9862 7.82461 33.8966 8.01054 33.8281 8.25489C33.7595 8.49394 33.7279 8.79672 33.7279 9.15795C33.7279 9.48198 33.7595 9.76352 33.8175 10.0026C33.8755 10.2416 33.9651 10.4328 34.0811 10.5763C34.1918 10.7144 34.3289 10.8153 34.4817 10.8791C34.6399 10.9428 34.8139 10.9747 35.0142 10.9747C35.1881 10.9747 35.3516 10.9481 35.5044 10.8897C35.6679 10.8259 35.7996 10.7303 35.9051 10.5922Z" fill="#656565"/>
<path d="M45.3043 6.17792L43.0323 12.1115H40.892L38.6357 6.17261H40.6337L41.999 10.2523L43.3486 6.17261H45.3043V6.17792Z" fill="#656565"/>
<path d="M48.0298 12.1115H46.1425V3.88843H48.0298V12.1115Z" fill="#656565"/>
<path d="M51.4879 12.1115H49.6007V3.88843H51.4879V12.1115Z" fill="#656565"/>
<path d="M55.7158 10.0132L57.0601 6.17261H59L55.7263 14.2895H53.6809L54.614 12.069L52.3209 6.17261H54.303L55.7158 10.0132Z" fill="#656565"/>
<path d="M19.6684 4.23901V5.68921H21.4555V8.82334C21.4555 9.14207 21.4502 9.40767 21.4397 9.61484C21.4292 9.82202 21.3817 10.0079 21.3026 10.1832C21.2183 10.3585 21.076 10.4967 20.8809 10.5976C20.6806 10.6985 20.4012 10.7463 20.0322 10.7463C20.0322 10.7463 19.4681 10.7676 18.6194 10.6135V12.085C18.8619 12.1328 19.1413 12.17 19.4576 12.1965C19.7739 12.2231 20.1165 12.239 20.475 12.239C21.0074 12.239 21.4502 12.1806 21.814 12.0584C22.1725 11.9362 22.4835 11.7662 22.7365 11.5431C22.979 11.336 23.1583 11.081 23.2848 10.7782C23.406 10.4754 23.4693 10.1514 23.4693 9.80608V4.23901H19.6684Z" fill="#656565"/>
<path d="M6.01496 6.05054H3.01013V9.07843H6.01496V6.05054Z" fill="#656565"/>
<path d="M10.5222 6.05054H7.51733V9.07843H10.5222V6.05054Z" fill="#656565"/>
<path d="M10.5485 9.07837V9.17399C10.5485 11.2723 8.85633 12.9774 6.77403 12.9774C4.69174 12.9774 3.01537 11.2723 3.01537 9.17399V9.07837H0V9.17399C0 12.9349 3.03645 15.9947 6.76876 15.9947C10.5011 15.9947 13.5375 12.9349 13.5375 9.17399V9.07837H10.5485Z" fill="#656565"/>
<path d="M7.51733 0V3.02789H10.5485V6.05047H13.5428V0H7.51733Z" fill="#656565"/>
</svg>
