<svg width="44" height="44" viewBox="0 0 44 44" fill="none" xmlns="http://www.w3.org/2000/svg">
<path d="M22 0C12.76 0 5.24219 7.51781 5.24219 16.7578C5.24219 25.1782 11.408 31.6821 15.9097 36.3059C18.3795 38.8425 20.7109 41.2369 20.7109 42.7109C20.7109 43.4234 21.2875 44 22 44C22.7125 44 23.2891 43.4234 23.2891 42.7109C23.2891 41.2369 25.6205 38.8425 28.0903 36.3059C32.592 31.6821 38.7578 25.1782 38.7578 16.7578C38.7578 7.51781 31.24 0 22 0Z" fill="url(#paint0_linear)"/>
<path d="M22 23.2031C25.5596 23.2031 28.4453 20.3175 28.4453 16.7578C28.4453 13.1982 25.5596 10.3125 22 10.3125C18.4404 10.3125 15.5547 13.1982 15.5547 16.7578C15.5547 20.3175 18.4404 23.2031 22 23.2031Z" fill="white"/>
<defs>
<linearGradient id="paint0_linear" x1="22" y1="44" x2="22" y2="0" gradientUnits="userSpaceOnUse">
<stop stop-color="#D1362A"/>
<stop offset="1" stop-color="#FF8D8D"/>
</linearGradient>
</defs>
</svg>
