<svg width="151" height="155" viewBox="0 0 151 155" fill="none" xmlns="http://www.w3.org/2000/svg">
<mask id="mask0" mask-type="alpha" maskUnits="userSpaceOnUse" x="0" y="0" width="151" height="155">
<rect width="151" height="155" rx="10" fill="#C4C4C4"/>
</mask>
<g mask="url(#mask0)">
<path d="M78.8906 143.407C65.8042 143.407 53.1879 139.626 42.3198 132.458L19.4517 139.564C18.5298 139.85 17.5248 139.603 16.8425 138.92C16.1603 138.237 15.9126 137.233 16.1989 136.311L23.3045 113.443C16.1369 102.575 12.3562 89.9586 12.3562 76.8723C12.3562 59.1006 19.2771 42.3919 31.8436 29.8253C44.4102 17.2587 61.1189 10.3379 78.8906 10.3379C96.6623 10.3379 113.371 17.2587 125.938 29.8253C138.504 42.3919 145.425 59.1006 145.425 76.8723C145.425 94.6439 138.504 111.353 125.938 123.919C113.371 136.486 96.6623 143.407 78.8906 143.407ZM42.7381 127.008C43.2569 127.008 43.7716 127.164 44.2092 127.464C54.4417 134.494 66.4347 138.209 78.8906 138.209C112.712 138.209 140.227 110.694 140.227 76.8723C140.227 43.0508 112.712 15.5359 78.8906 15.5359C45.0691 15.5359 17.5542 43.0508 17.5542 76.8723C17.5542 89.3282 21.2689 101.321 28.2984 111.554C28.7482 112.21 28.8741 113.036 28.6375 113.796L22.6283 133.133L41.9665 127.125C42.2193 127.047 42.4792 127.008 42.7381 127.008Z" fill="#F9F9F9"/>
<path d="M78.8906 115.207C78.376 115.207 77.8625 115.055 77.4185 114.754C77.0471 114.501 68.2241 108.482 59.2539 100.189C46.8471 88.7193 40.5563 78.8392 40.5563 70.8228C40.5563 56.9085 51.011 45.5879 63.8618 45.5879C69.3679 45.5879 74.7114 47.7267 78.8906 51.535C83.0699 47.7267 88.4134 45.5879 93.9185 45.5879C106.77 45.5879 117.225 56.9085 117.225 70.8228C117.225 78.8392 110.934 88.7193 98.5264 100.189C89.5572 108.482 80.7342 114.501 80.3628 114.754C79.9188 115.055 79.4053 115.207 78.8906 115.207ZM63.8628 50.8224C53.8991 50.8224 45.7944 59.7946 45.7944 70.8228C45.7944 83.4112 68.4287 102.017 78.8906 109.404C89.3515 102.013 111.987 83.3999 111.987 70.8228C111.987 59.7946 103.882 50.8224 93.9195 50.8224C88.9495 50.8224 84.316 53.0133 80.8723 56.9923C80.3741 57.5679 79.6518 57.8981 78.8917 57.8981C78.1305 57.8981 77.4082 57.5679 76.91 56.9923C73.4663 53.0133 68.8329 50.8224 63.8628 50.8224Z" fill="#F9F9F9"/>
<path d="M78.9574 28.8438C78.9557 28.8438 78.954 28.8438 78.9524 28.8438H78.8239C77.6439 28.8438 76.6875 27.8575 76.6875 26.6406C76.6875 25.4237 77.6439 24.4375 78.8239 24.4375H78.9624C80.1424 24.4409 81.0962 25.4289 81.0937 26.6458C81.0912 27.8609 80.1349 28.8438 78.9574 28.8438Z" fill="#F9F9F9"/>
<path d="M114.623 44.7059C113.957 44.7059 113.291 44.4466 112.784 43.9269C106.096 37.0853 97.6912 32.4773 88.4761 30.5998C87.0661 30.3124 86.1512 28.9086 86.4318 27.4653C86.7124 26.021 88.0817 25.0827 89.4916 25.3701C99.7182 27.4539 109.044 32.5658 116.462 40.1541C117.478 41.1944 117.479 42.8825 116.464 43.9238C115.956 44.4455 115.289 44.7059 114.623 44.7059Z" fill="#F9F9F9"/>
</g>
</svg>
