<svg width="16" height="16" viewBox="0 0 16 16" fill="none" xmlns="http://www.w3.org/2000/svg">
<g clip-path="url(#clip0)">
<path d="M12.7396 10.6357C11.1615 12.5222 9.26182 14.0075 7.09356 15.0584C6.26803 15.4496 5.16401 15.9138 3.93401 15.9934C3.85775 15.9967 3.78481 16 3.70856 16C2.88303 16 2.21996 15.7149 1.67955 15.1281C1.67624 15.1247 1.66961 15.1181 1.66629 15.1115C1.474 14.8794 1.25518 14.6705 1.02642 14.4484C0.870601 14.2992 0.711463 14.1434 0.558955 13.9843C-0.147219 13.2482 -0.147219 12.3133 0.565586 11.6005L2.55813 9.60796C2.8963 9.25653 3.30077 9.07087 3.72514 9.07087C4.14951 9.07087 4.5573 9.25653 4.90541 9.60464L6.09232 10.7915C6.20172 10.7286 6.31445 10.6722 6.42054 10.6191C6.55315 10.5528 6.67582 10.4898 6.78523 10.4202C7.86604 9.73394 8.84739 8.83879 9.78564 7.68835C10.2597 7.08827 10.578 6.58433 10.8001 6.07045C10.4885 5.78864 10.1968 5.49358 9.91494 5.20514C9.81548 5.10236 9.71271 4.99959 9.60993 4.89681C9.25187 4.53875 9.05958 4.12433 9.05958 3.70327C9.05958 3.28222 9.24855 2.8678 9.60993 2.50974L10.5979 1.52176C10.7139 1.40572 10.8234 1.293 10.9361 1.17696C11.1549 0.951513 11.3837 0.719436 11.6091 0.510568C11.9506 0.175715 12.3517 0 12.7761 0C13.1972 0 13.6016 0.175715 13.9564 0.513883L15.1963 1.75383C15.6472 2.20472 15.9025 2.75176 15.9556 3.385C16.0185 4.17737 15.8727 5.01948 15.4947 6.0373C14.9145 7.6121 14.0393 9.07418 12.7396 10.6357ZM15.1466 3.45462C15.1068 3.01368 14.9377 2.64567 14.6195 2.32739L13.3861 1.09407C13.1938 0.908413 12.9817 0.812267 12.7761 0.812267C12.5739 0.812267 12.3683 0.908413 12.1793 1.1007C11.9572 1.30626 11.7483 1.52176 11.5229 1.75052C11.4102 1.86656 11.2941 1.98259 11.1781 2.10195L10.1901 3.08993C9.98457 3.29548 9.87847 3.50435 9.87847 3.7099C9.87847 3.91546 9.98457 4.12433 10.1901 4.32988C10.2929 4.43266 10.3957 4.53875 10.4984 4.64152C10.8068 4.95317 11.0952 5.24824 11.4135 5.53005C11.4201 5.53668 11.4234 5.53999 11.4301 5.54662C11.7052 5.8218 11.6621 6.08371 11.5958 6.28264C11.5925 6.29258 11.5892 6.29921 11.5859 6.30916C11.3306 6.9225 10.9759 7.50601 10.4222 8.20224C9.42758 9.42893 8.37993 10.3804 7.22617 11.1131C7.08361 11.206 6.93111 11.2789 6.78855 11.3518C6.65593 11.4182 6.53326 11.4811 6.42385 11.5508C6.41059 11.5574 6.40065 11.564 6.38739 11.5707C6.27798 11.627 6.17189 11.6535 6.06579 11.6535C5.80056 11.6535 5.62816 11.4845 5.5718 11.4281L4.33185 10.1881C4.13956 9.99586 3.93069 9.89308 3.72514 9.89308C3.47317 9.89308 3.26762 10.0489 3.13832 10.1881L1.13915 12.184C0.741301 12.5818 0.744617 13.0128 1.14909 13.4339C1.28834 13.5831 1.43421 13.7257 1.59004 13.8748C1.82211 14.1003 2.06414 14.3324 2.28295 14.5943C2.66422 15.0054 3.11843 15.1977 3.70525 15.1977C3.76161 15.1977 3.82128 15.1944 3.87765 15.191C4.96509 15.1214 5.97628 14.6971 6.7355 14.3357C8.79766 13.3378 10.6079 11.9221 12.1097 10.1252C13.3464 8.63655 14.1785 7.25072 14.7289 5.76544C15.0704 4.85371 15.1997 4.12101 15.1466 3.45462Z" fill="#D1362A"/>
</g>
<defs>
<clipPath id="clip0">
<rect width="16" height="16" fill="white" transform="matrix(-1 0 0 1 16 0)"/>
</clipPath>
</defs>
</svg>
