<svg width="16" height="16" viewBox="0 0 16 16" fill="none" xmlns="http://www.w3.org/2000/svg">
<g clip-path="url(#clip0)">
<path d="M10.3092 0.0924074C10.2359 0.0151368 10.1353 -0.03125 10.031 -0.03125H3.78943C2.6377 -0.03125 1.68701 0.915651 1.68701 2.06726V13.8701C1.68701 15.0219 2.6377 15.9688 3.78943 15.9688H12.2609C13.4126 15.9688 14.3633 15.0219 14.3633 13.8701V4.49818C14.3633 4.39771 14.3169 4.30116 14.2512 4.22767L10.3092 0.0924074ZM10.4213 1.33301L13.0609 4.10401H11.345C10.8349 4.10401 10.4213 3.69434 10.4213 3.18421V1.33301ZM12.2609 15.1958H3.78943C3.06678 15.1958 2.45996 14.5968 2.45996 13.8701V2.06726C2.45996 1.34461 3.06287 0.741701 3.78943 0.741701H9.64833V3.18421C9.64833 4.1233 10.4059 4.87696 11.345 4.87696H13.5904V13.8701C13.5904 14.5968 12.9874 15.1958 12.2609 15.1958Z" fill="#5A5A5A"/>
<path d="M11.2058 12.5293H4.84448C4.63196 12.5293 4.45801 12.7031 4.45801 12.9158C4.45801 13.1283 4.63196 13.3023 4.84448 13.3023H11.2097C11.4223 13.3023 11.5962 13.1283 11.5962 12.9158C11.5962 12.7031 11.4223 12.5293 11.2058 12.5293Z" fill="#5A5A5A"/>
<path d="M6.04667 8.37024L7.63895 6.65808V10.8784C7.63895 11.091 7.8129 11.2649 8.02543 11.2649C8.23807 11.2649 8.4119 11.091 8.4119 10.8784V6.65808L10.0042 8.37024C10.0815 8.4513 10.182 8.4939 10.2863 8.4939C10.3791 8.4939 10.4757 8.45911 10.5491 8.38953C10.7038 8.24268 10.7154 7.99915 10.5685 7.84461L8.30375 5.4137C8.23026 5.33643 8.1298 5.29004 8.02164 5.29004C7.91337 5.29004 7.8129 5.33643 7.73954 5.4137L5.47477 7.84461C5.32792 7.99915 5.33951 8.24646 5.49406 8.38953C5.65641 8.53638 5.89982 8.52479 6.04667 8.37024Z" fill="#5A5A5A"/>
</g>
<defs>
<clipPath id="clip0">
<rect width="16" height="16" fill="white"/>
</clipPath>
</defs>
</svg>
